<svg id="visual" viewBox="0 0 1200 900" width="1200" height="900" xmlns="http://www.w3.org/2000/svg" xmlns:xlink="http://www.w3.org/1999/xlink" version="1.1"><g stroke-width="1" stroke-linejoin="bevel"><path d="M547.3 498.3L428 480.3L504.3 618.9Z" fill="#57a8fb" stroke="#57a8fb"></path><path d="M561.3 371.7L409 411.7L428 480.3Z" fill="#5182fd" stroke="#5182fd"></path><path d="M263.7 513.3L382 672.9L428 480.3Z" fill="#57a8fb" stroke="#57a8fb"></path><path d="M428 480.3L382 672.9L504.3 618.9Z" fill="#62b0f9" stroke="#62b0f9"></path><path d="M547.3 498.3L561.3 371.7L428 480.3Z" fill="#5a77fb" stroke="#5a77fb"></path><path d="M504.3 618.9L680.7 510.3L547.3 498.3Z" fill="#4b96fe" stroke="#4b96fe"></path><path d="M547.3 498.3L652.7 398.7L561.3 371.7Z" fill="#715df2" stroke="#715df2"></path><path d="M409 411.7L263.7 513.3L428 480.3Z" fill="#5182fd" stroke="#5182fd"></path><path d="M296.7 752.4L427 758.4L382 672.9Z" fill="#656bf7" stroke="#656bf7"></path><path d="M382 672.9L427 758.4L504.3 618.9Z" fill="#656bf7" stroke="#656bf7"></path><path d="M504.3 618.9L700.7 681.9L680.7 510.3Z" fill="#7ec0f3" stroke="#7ec0f3"></path><path d="M427 758.4L540.3 758.4L504.3 618.9Z" fill="#4b96fe" stroke="#4b96fe"></path><path d="M680.7 510.3L652.7 398.7L547.3 498.3Z" fill="#7ec0f3" stroke="#7ec0f3"></path><path d="M263.7 513.3L237.7 620.9L382 672.9Z" fill="#6fb8f6" stroke="#6fb8f6"></path><path d="M655.7 746.4L700.7 681.9L504.3 618.9Z" fill="#5a77fb" stroke="#5a77fb"></path><path d="M540.3 758.4L655.7 746.4L504.3 618.9Z" fill="#656bf7" stroke="#656bf7"></path><path d="M561.3 371.7L408 277.1L409 411.7Z" fill="#7ec0f3" stroke="#7ec0f3"></path><path d="M409 411.7L241.7 378.7L263.7 513.3Z" fill="#5182fd" stroke="#5182fd"></path><path d="M535.3 229.1L408 277.1L561.3 371.7Z" fill="#4f9ffd" stroke="#4f9ffd"></path><path d="M237.7 620.9L296.7 752.4L382 672.9Z" fill="#4f9ffd" stroke="#4f9ffd"></path><path d="M292.7 287.1L241.7 378.7L409 411.7Z" fill="#656bf7" stroke="#656bf7"></path><path d="M263.7 513.3L171.3 481.3L237.7 620.9Z" fill="#7ec0f3" stroke="#7ec0f3"></path><path d="M700.7 681.9L791 541.3L680.7 510.3Z" fill="#4f9ffd" stroke="#4f9ffd"></path><path d="M680.7 510.3L810 365.7L652.7 398.7Z" fill="#4c8cfe" stroke="#4c8cfe"></path><path d="M241.7 378.7L171.3 481.3L263.7 513.3Z" fill="#7ec0f3" stroke="#7ec0f3"></path><path d="M237.7 620.9L140.3 636.9L296.7 752.4Z" fill="#6fb8f6" stroke="#6fb8f6"></path><path d="M408 277.1L292.7 287.1L409 411.7Z" fill="#5182fd" stroke="#5182fd"></path><path d="M241.7 378.7L123.3 396.7L171.3 481.3Z" fill="#715df2" stroke="#715df2"></path><path d="M698.7 225.1L561.3 371.7L652.7 398.7Z" fill="#4c8cfe" stroke="#4c8cfe"></path><path d="M698.7 225.1L535.3 229.1L561.3 371.7Z" fill="#62b0f9" stroke="#62b0f9"></path><path d="M408 277.1L372 123.6L292.7 287.1Z" fill="#62b0f9" stroke="#62b0f9"></path><path d="M171.3 481.3L140.3 636.9L237.7 620.9Z" fill="#6fb8f6" stroke="#6fb8f6"></path><path d="M700.7 681.9L835 603.9L791 541.3Z" fill="#5a77fb" stroke="#5a77fb"></path><path d="M777 770.4L835 603.9L700.7 681.9Z" fill="#5a77fb" stroke="#5a77fb"></path><path d="M427 758.4L544.3 900L540.3 758.4Z" fill="#656bf7" stroke="#656bf7"></path><path d="M540.3 758.4L544.3 900L655.7 746.4Z" fill="#4f9ffd" stroke="#4f9ffd"></path><path d="M655.7 746.4L777 770.4L700.7 681.9Z" fill="#656bf7" stroke="#656bf7"></path><path d="M372 900L544.3 900L427 758.4Z" fill="#6fb8f6" stroke="#6fb8f6"></path><path d="M241.7 900L372 900L296.7 752.4Z" fill="#4f9ffd" stroke="#4f9ffd"></path><path d="M296.7 752.4L372 900L427 758.4Z" fill="#7ec0f3" stroke="#7ec0f3"></path><path d="M925.3 540.3L810 365.7L791 541.3Z" fill="#4c8cfe" stroke="#4c8cfe"></path><path d="M791 541.3L810 365.7L680.7 510.3Z" fill="#656bf7" stroke="#656bf7"></path><path d="M689.7 900L777 770.4L655.7 746.4Z" fill="#6fb8f6" stroke="#6fb8f6"></path><path d="M139.3 249.1L123.3 396.7L241.7 378.7Z" fill="#656bf7" stroke="#656bf7"></path><path d="M171.3 481.3L0 509.3L140.3 636.9Z" fill="#7ec0f3" stroke="#7ec0f3"></path><path d="M781 295.1L698.7 225.1L652.7 398.7Z" fill="#715df2" stroke="#715df2"></path><path d="M810 365.7L781 295.1L652.7 398.7Z" fill="#5182fd" stroke="#5182fd"></path><path d="M649.7 91.6L493.3 138.6L535.3 229.1Z" fill="#656bf7" stroke="#656bf7"></path><path d="M535.3 229.1L493.3 138.6L408 277.1Z" fill="#4f9ffd" stroke="#4f9ffd"></path><path d="M292.7 287.1L139.3 249.1L241.7 378.7Z" fill="#62b0f9" stroke="#62b0f9"></path><path d="M544.3 900L689.7 900L655.7 746.4Z" fill="#656bf7" stroke="#656bf7"></path><path d="M111.3 802.4L241.7 900L296.7 752.4Z" fill="#57a8fb" stroke="#57a8fb"></path><path d="M493.3 138.6L372 123.6L408 277.1Z" fill="#715df2" stroke="#715df2"></path><path d="M777 770.4L900.3 647.9L835 603.9Z" fill="#715df2" stroke="#715df2"></path><path d="M835 603.9L925.3 540.3L791 541.3Z" fill="#5a77fb" stroke="#5a77fb"></path><path d="M928.3 780.4L900.3 647.9L777 770.4Z" fill="#7ec0f3" stroke="#7ec0f3"></path><path d="M900.3 647.9L925.3 540.3L835 603.9Z" fill="#5182fd" stroke="#5182fd"></path><path d="M810 365.7L898.3 254.1L781 295.1Z" fill="#6fb8f6" stroke="#6fb8f6"></path><path d="M254.7 120.6L139.3 249.1L292.7 287.1Z" fill="#5182fd" stroke="#5182fd"></path><path d="M0 669.9L111.3 802.4L140.3 636.9Z" fill="#62b0f9" stroke="#62b0f9"></path><path d="M140.3 636.9L111.3 802.4L296.7 752.4Z" fill="#5182fd" stroke="#5182fd"></path><path d="M372 123.6L254.7 120.6L292.7 287.1Z" fill="#7ec0f3" stroke="#7ec0f3"></path><path d="M0 349.7L0 509.3L123.3 396.7Z" fill="#6fb8f6" stroke="#6fb8f6"></path><path d="M123.3 396.7L0 509.3L171.3 481.3Z" fill="#5182fd" stroke="#5182fd"></path><path d="M698.7 225.1L649.7 91.6L535.3 229.1Z" fill="#6fb8f6" stroke="#6fb8f6"></path><path d="M493.3 138.6L436 0L372 123.6Z" fill="#6fb8f6" stroke="#6fb8f6"></path><path d="M372 123.6L295.7 0L254.7 120.6Z" fill="#7ec0f3" stroke="#7ec0f3"></path><path d="M790 118.6L649.7 91.6L698.7 225.1Z" fill="#715df2" stroke="#715df2"></path><path d="M689.7 900L820 900L777 770.4Z" fill="#4c8cfe" stroke="#4c8cfe"></path><path d="M0 509.3L0 669.9L140.3 636.9Z" fill="#4b96fe" stroke="#4b96fe"></path><path d="M925.3 540.3L943.3 362.7L810 365.7Z" fill="#6fb8f6" stroke="#6fb8f6"></path><path d="M781 295.1L790 118.6L698.7 225.1Z" fill="#715df2" stroke="#715df2"></path><path d="M820 900L928.3 780.4L777 770.4Z" fill="#62b0f9" stroke="#62b0f9"></path><path d="M900.3 647.9L1027.7 639.9L925.3 540.3Z" fill="#62b0f9" stroke="#62b0f9"></path><path d="M925.3 540.3L1030.7 359.7L943.3 362.7Z" fill="#715df2" stroke="#715df2"></path><path d="M943.3 362.7L898.3 254.1L810 365.7Z" fill="#4c8cfe" stroke="#4c8cfe"></path><path d="M139.3 249.1L0 349.7L123.3 396.7Z" fill="#6fb8f6" stroke="#6fb8f6"></path><path d="M0 251.1L0 349.7L139.3 249.1Z" fill="#7ec0f3" stroke="#7ec0f3"></path><path d="M898.3 254.1L790 118.6L781 295.1Z" fill="#656bf7" stroke="#656bf7"></path><path d="M111.3 802.4L93.3 900L241.7 900Z" fill="#7ec0f3" stroke="#7ec0f3"></path><path d="M0 805.4L93.3 900L111.3 802.4Z" fill="#4c8cfe" stroke="#4c8cfe"></path><path d="M699.7 0L505.3 0L649.7 91.6Z" fill="#57a8fb" stroke="#57a8fb"></path><path d="M649.7 91.6L505.3 0L493.3 138.6Z" fill="#6fb8f6" stroke="#6fb8f6"></path><path d="M505.3 0L436 0L493.3 138.6Z" fill="#6fb8f6" stroke="#6fb8f6"></path><path d="M0 669.9L0 805.4L111.3 802.4Z" fill="#4f9ffd" stroke="#4f9ffd"></path><path d="M928.3 780.4L1027.7 639.9L900.3 647.9Z" fill="#62b0f9" stroke="#62b0f9"></path><path d="M97.3 112.6L0 251.1L139.3 249.1Z" fill="#6fb8f6" stroke="#6fb8f6"></path><path d="M97.3 112.6L139.3 249.1L254.7 120.6Z" fill="#5a77fb" stroke="#5a77fb"></path><path d="M436 0L295.7 0L372 123.6Z" fill="#6fb8f6" stroke="#6fb8f6"></path><path d="M112.3 0L97.3 112.6L254.7 120.6Z" fill="#5182fd" stroke="#5182fd"></path><path d="M898.3 254.1L923.3 165.6L790 118.6Z" fill="#6fb8f6" stroke="#6fb8f6"></path><path d="M943.3 362.7L1052.7 280.1L898.3 254.1Z" fill="#7ec0f3" stroke="#7ec0f3"></path><path d="M1097.7 484.3L1030.7 359.7L925.3 540.3Z" fill="#5a77fb" stroke="#5a77fb"></path><path d="M1052.7 280.1L923.3 165.6L898.3 254.1Z" fill="#656bf7" stroke="#656bf7"></path><path d="M790 118.6L699.7 0L649.7 91.6Z" fill="#4f9ffd" stroke="#4f9ffd"></path><path d="M796 0L699.7 0L790 118.6Z" fill="#656bf7" stroke="#656bf7"></path><path d="M0 805.4L0 900L93.3 900Z" fill="#5a77fb" stroke="#5a77fb"></path><path d="M820 900L962.3 900L928.3 780.4Z" fill="#57a8fb" stroke="#57a8fb"></path><path d="M928.3 780.4L1033.7 809.4L1027.7 639.9Z" fill="#57a8fb" stroke="#57a8fb"></path><path d="M962.3 900L1033.7 809.4L928.3 780.4Z" fill="#57a8fb" stroke="#57a8fb"></path><path d="M1027.7 639.9L1097.7 484.3L925.3 540.3Z" fill="#5a77fb" stroke="#5a77fb"></path><path d="M1200 552.3L1097.7 484.3L1027.7 639.9Z" fill="#5a77fb" stroke="#5a77fb"></path><path d="M951.3 0L796 0L790 118.6Z" fill="#656bf7" stroke="#656bf7"></path><path d="M1030.7 359.7L1052.7 280.1L943.3 362.7Z" fill="#715df2" stroke="#715df2"></path><path d="M923.3 165.6L951.3 0L790 118.6Z" fill="#4f9ffd" stroke="#4f9ffd"></path><path d="M1200 411.7L1052.7 280.1L1030.7 359.7Z" fill="#5a77fb" stroke="#5a77fb"></path><path d="M295.7 0L112.3 0L254.7 120.6Z" fill="#6fb8f6" stroke="#6fb8f6"></path><path d="M97.3 112.6L0 95.6L0 251.1Z" fill="#656bf7" stroke="#656bf7"></path><path d="M112.3 0L0 95.6L97.3 112.6Z" fill="#4b96fe" stroke="#4b96fe"></path><path d="M962.3 900L1038.7 900L1033.7 809.4Z" fill="#715df2" stroke="#715df2"></path><path d="M1200 641.9L1200 552.3L1027.7 639.9Z" fill="#4b96fe" stroke="#4b96fe"></path><path d="M1044.7 0L951.3 0L923.3 165.6Z" fill="#57a8fb" stroke="#57a8fb"></path><path d="M1200 641.9L1027.7 639.9L1200 731.4Z" fill="#7ec0f3" stroke="#7ec0f3"></path><path d="M1097.7 484.3L1200 411.7L1030.7 359.7Z" fill="#715df2" stroke="#715df2"></path><path d="M1052.7 280.1L1105.7 166.6L923.3 165.6Z" fill="#7ec0f3" stroke="#7ec0f3"></path><path d="M112.3 0L0 0L0 95.6Z" fill="#656bf7" stroke="#656bf7"></path><path d="M1200 731.4L1027.7 639.9L1033.7 809.4Z" fill="#57a8fb" stroke="#57a8fb"></path><path d="M1200 250.1L1105.7 166.6L1052.7 280.1Z" fill="#4b96fe" stroke="#4b96fe"></path><path d="M1200 552.3L1200 411.7L1097.7 484.3Z" fill="#4b96fe" stroke="#4b96fe"></path><path d="M1200 900L1200 731.4L1033.7 809.4Z" fill="#5182fd" stroke="#5182fd"></path><path d="M1200 411.7L1200 250.1L1052.7 280.1Z" fill="#57a8fb" stroke="#57a8fb"></path><path d="M1105.7 166.6L1044.7 0L923.3 165.6Z" fill="#4c8cfe" stroke="#4c8cfe"></path><path d="M1200 123.6L1044.7 0L1105.7 166.6Z" fill="#4f9ffd" stroke="#4f9ffd"></path><path d="M1038.7 900L1200 900L1033.7 809.4Z" fill="#5a77fb" stroke="#5a77fb"></path><path d="M1200 250.1L1200 123.6L1105.7 166.6Z" fill="#7ec0f3" stroke="#7ec0f3"></path><path d="M1200 123.6L1200 0L1044.7 0Z" fill="#656bf7" stroke="#656bf7"></path></g></svg>