<svg id="visual" viewBox="0 0 900 600" width="900" height="600" xmlns="http://www.w3.org/2000/svg" xmlns:xlink="http://www.w3.org/1999/xlink" version="1.1"><path d="M0 73L15 76C30 79 60 85 90 84C120 83 150 75 180 79C210 83 240 99 270 101C300 103 330 91 360 83C390 75 420 71 450 74C480 77 510 87 540 93C570 99 600 101 630 92C660 83 690 63 720 59C750 55 780 67 810 76C840 85 870 91 885 94L900 97L900 0L885 0C870 0 840 0 810 0C780 0 750 0 720 0C690 0 660 0 630 0C600 0 570 0 540 0C510 0 480 0 450 0C420 0 390 0 360 0C330 0 300 0 270 0C240 0 210 0 180 0C150 0 120 0 90 0C60 0 30 0 15 0L0 0Z" fill="#a8a89e"></path><path d="M0 133L15 132C30 131 60 129 90 132C120 135 150 143 180 146C210 149 240 147 270 148C300 149 330 153 360 149C390 145 420 133 450 132C480 131 510 141 540 147C570 153 600 155 630 146C660 137 690 117 720 112C750 107 780 117 810 129C840 141 870 155 885 162L900 169L900 95L885 92C870 89 840 83 810 74C780 65 750 53 720 57C690 61 660 81 630 90C600 99 570 97 540 91C510 85 480 75 450 72C420 69 390 73 360 81C330 89 300 101 270 99C240 97 210 81 180 77C150 73 120 81 90 82C60 83 30 77 15 74L0 71Z" fill="#858f85"></path><path d="M0 277L15 271C30 265 60 253 90 273C120 293 150 345 180 349C210 353 240 309 270 296C300 283 330 301 360 292C390 283 420 247 450 233C480 219 510 227 540 244C570 261 600 287 630 288C660 289 690 265 720 269C750 273 780 305 810 310C840 315 870 293 885 282L900 271L900 167L885 160C870 153 840 139 810 127C780 115 750 105 720 110C690 115 660 135 630 144C600 153 570 151 540 145C510 139 480 129 450 130C420 131 390 143 360 147C330 151 300 147 270 146C240 145 210 147 180 144C150 141 120 133 90 130C60 127 30 129 15 130L0 131Z" fill="#637672"></path><path d="M0 325L15 321C30 317 60 309 90 328C120 347 150 393 180 395C210 397 240 355 270 343C300 331 330 349 360 346C390 343 420 319 450 311C480 303 510 311 540 328C570 345 600 371 630 369C660 367 690 337 720 343C750 349 780 391 810 396C840 401 870 369 885 353L900 337L900 269L885 280C870 291 840 313 810 308C780 303 750 271 720 267C690 263 660 287 630 286C600 285 570 259 540 242C510 225 480 217 450 231C420 245 390 281 360 290C330 299 300 281 270 294C240 307 210 351 180 347C150 343 120 291 90 271C60 251 30 263 15 269L0 275Z" fill="#455c61"></path><path d="M0 493L15 497C30 501 60 509 90 514C120 519 150 521 180 514C210 507 240 491 270 493C300 495 330 515 360 519C390 523 420 511 450 510C480 509 510 519 540 523C570 527 600 525 630 515C660 505 690 487 720 487C750 487 780 505 810 511C840 517 870 511 885 508L900 505L900 335L885 351C870 367 840 399 810 394C780 389 750 347 720 341C690 335 660 365 630 367C600 369 570 343 540 326C510 309 480 301 450 309C420 317 390 341 360 344C330 347 300 329 270 341C240 353 210 395 180 393C150 391 120 345 90 326C60 307 30 315 15 319L0 323Z" fill="#314350"></path><path d="M0 601L15 601C30 601 60 601 90 601C120 601 150 601 180 601C210 601 240 601 270 601C300 601 330 601 360 601C390 601 420 601 450 601C480 601 510 601 540 601C570 601 600 601 630 601C660 601 690 601 720 601C750 601 780 601 810 601C840 601 870 601 885 601L900 601L900 503L885 506C870 509 840 515 810 509C780 503 750 485 720 485C690 485 660 503 630 513C600 523 570 525 540 521C510 517 480 507 450 508C420 509 390 521 360 517C330 513 300 493 270 491C240 489 210 505 180 512C150 519 120 517 90 512C60 507 30 499 15 495L0 491Z" fill="#26293a"></path></svg>